:FULLY-SPECIFIED
:FORCE-ALL-JOINTS-BE-3DOF
:DEGREES
102
root 7.34759 16.6405 -26.7451 5.03424 10.1171 -4.60646
lfemur -28.8953 -5.95765 -9.13739
ltibia 40.3261 0 0
lfoot -18.8749 -0.965839 0
ltoes 12.6487 0 0
rfemur -27.7954 -11.8263 10.6676
rtibia 66.607 0 0
rfoot 1.99524 15.672 0
rtoes -23.2125 0 0
lowerback -0.285987 2.45484 1.63878
upperback -1.73263 3.31222 1.81961
thorax -1.62597 1.64841 0.920019
lowerneck -10.2608 -4.96043 2.46985
upperneck -1.02524 -6.88158 0.980678
head 1.34698 -3.4066 -0.391798
lclavicle 1.41836e-14 1.72422e-14 0
lhumerus -46.8896 -6.9386 92.9064
lradius 47.8802 0 0
lwrist 15.6384 0 0
lhand 6.59544 7.61052 0
lfingers 7.12502 0 0
lthumb 31.8917 34.8492 0
rclavicle 1.41836e-14 1.72422e-14 0
rhumerus -42.9201 -0.227749 -73.9712
rradius 50.9803 0 0
rwrist -3.17179 0 0
rhand -16.5126 -12.6576 0
rfingers 7.12502 0 0
rthumb 9.70547 -42.4094 0
103
root 7.37507 16.6483 -26.7274 4.58421 10.4841 -4.49584
lfemur -28.2734 -5.86381 -9.42229
ltibia 40.0335 0 0
lfoot -18.6972 -1.63497 0
ltoes 13.6804 0 0
rfemur -29.4118 -11.2188 9.4538
rtibia 69.4707 0 0
rfoot 4.63953 16.3834 0
rtoes -20.8602 0 0
lowerback 0.109966 2.27676 1.50305
upperback -1.57744 3.07762 1.86326
thorax -1.69118 1.53252 1.04038
lowerneck -10.3043 -4.96664 2.41963
upperneck -0.897803 -6.88705 0.950286
head 1.39656 -3.40826 -0.397326
lclavicle 1.55426e-14 1.65672e-14 0
lhumerus -46.8253 -7.30685 92.9879
lradius 47.9377 0 0
lwrist 15.6091 0 0
lhand 6.899 7.65777 0
lfingers 7.12502 0 0
lthumb 32.1816 34.8474 0
rclavicle 1.55426e-14 1.65672e-14 0
rhumerus -43.0099 -0.0691376 -73.3605
rradius 51.0035 0 0
rwrist -2.26072 0 0
rhand -17.0682 -13.0103 0
rfingers 7.12502 0 0
rthumb 9.16933 -42.7819 0
104
root 7.4067 16.6596 -26.7067 3.97866 10.9758 -4.35898
lfemur -27.4551 -5.63719 -9.81327
ltibia 39.6545 0 0
lfoot -18.4346 -2.5638 0
ltoes 15.2323 0 0
rfemur -31.5835 -10.3005 7.80362
rtibia 73.2904 0 0
rfoot 8.18362 17.1496 0
rtoes -17.2372 0 0
lowerback 0.653487 2.03302 1.32373
upperback -1.35833 2.75581 1.92078
thorax -1.77308 1.37354 1.2004
lowerneck -10.3643 -4.96959 2.35486
upperneck -0.748801 -6.88697 0.908556
head 1.45642 -3.40721 -0.404883
lclavicle 1.73814e-14 1.53833e-14 0
lhumerus -46.7101 -7.84592 93.0934
lradius 48 0 0
lwrist 15.5176 0 0
lhand 7.21813 7.67968 0
lfingers 7.12502 0 0
lthumb 32.4862 34.8153 0
rclavicle 1.73814e-14 1.53833e-14 0
rhumerus -43.0972 0.182499 -72.6027
rradius 50.9851 0 0
rwrist -0.831129 0 0
rhand -17.9256 -13.5798 0
rfingers 7.12502 0 0
rthumb 8.34212 -43.3826 0
105
root 7.43981 16.6743 -26.685 3.23721 11.569 -4.20392
lfemur -26.4695 -5.2515 -10.2983
ltibia 39.2022 0 0
lfoot -18.088 -3.72233 0
ltoes 17.2893 0 0
rfemur -34.2252 -9.08555 5.78629
rtibia 77.8552 0 0
rfoot 12.4524 17.8678 0
rtoes -12.3726 0 0
lowerback 1.33129 1.73125 1.1086
upperback -1.07863 2.35659 1.98909
thorax -1.86693 1.17626 1.39331
lowerneck -10.4396 -4.96597 2.27866
upperneck -0.590908 -6.87698 0.857132
head 1.52228 -3.40144 -0.413983
lclavicle 1.95749e-14 1.36717e-14 0
lhumerus -46.5361 -8.54641 93.2162
lradius 48.0594 0 0
lwrist 15.3502 0 0
lhand 7.51168 7.66321 0
lfingers 7.12502 0 0
lthumb 32.7661 34.7461 0
rclavicle 1.95749e-14 1.36717e-14 0
rhumerus -43.1674 0.525231 -71.7413
rradius 50.9199 0 0
rwrist 1.11032 0 0
rhand -19.0611 -14.3668 0
rfingers 7.12502 0 0
rthumb 7.24645 -44.2111 0
106
root 7.47263 16.6921 -26.6638 2.38318 12.2334 -4.03714
lfemur -25.3448 -4.6998 -10.8603
ltibia 38.6869 0 0
lfoot -17.6643 -5.0634 0
ltoes 19.7846 0 0
rfemur -37.229 -7.62402 3.49862
rtibia 82.8856 0 0
rfoot 17.2142 18.4553 0
rtoes -6.44319 0 0
lowerback 2.12532 1.3821 0.866548
upperback -0.744699 1.89376 2.06445
thorax -1.96848 0.947495 1.61106
lowerneck -10.528 -4.95242 2.19413
upperneck -0.433908 -6.85277 0.798445
head 1.59063 -3.38889 -0.423882
lclavicle 2.19381e-14 1.1494e-14 0
lhumerus -46.2995 -9.38338 93.3483
lradius 48.1096 0 0
lwrist 15.1032 0 0
lhand 7.75199 7.60377 0
lfingers 7.12502 0 0
lthumb 32.9948 34.6396 0
rclavicle 2.19381e-14 1.1494e-14 0
rhumerus -43.2114 0.944304 -70.8114
rradius 50.8191 0 0
rwrist 3.49244 0 0
rhand -20.4046 -15.3428 0
rfingers 7.12502 0 0
rthumb 5.95003 -45.2357 0
107
root 7.50427 16.7127 -26.6439 1.44362 12.9315 -3.86353
lfemur -24.1082 -3.9945 -11.4771
ltibia 38.116 0 0
lfoot -17.1762 -6.52267 0
ltoes 22.5989 0 0
rfemur -40.4652 -6.00176 1.06502
rtibia 88.0334 0 0
rfoot 22.1805 18.8495 0
rtoes 0.226336 0 0
lowerback 3.01279 0.999154 0.607544
upperback -0.365882 1.38513 2.14245
thorax -2.07394 0.696 1.84432
lowerneck -10.6269 -4.92561 2.10433
upperneck -0.284684 -6.81012 0.735714
head 1.65879 -3.36746 -0.433584
lclavicle 2.42262e-14 8.99208e-15 0
lhumerus -46.0013 -10.3164 93.4807
lradius 48.146 0 0
lwrist 14.7836 0 0
lhand 7.92486 7.50518 0
lfingers 7.12502 0 0
lthumb 33.1588 34.5025 0
rclavicle 2.42262e-14 8.99208e-15 0
rhumerus -43.2252 1.41214 -69.8396
rradius 50.7099 0 0
rwrist 6.17953 0 0
rhand -21.8391 -16.4507 0
rfingers 7.12502 0 0
rthumb 4.56572 -46.3935 0
108
root 7.5347 16.7356 -26.6262 0.449283 13.6188 -3.6864
lfemur -22.7863 -3.16734 -12.1217
ltibia 37.4939 0 0
lfoot -16.6424 -8.01864 0
ltoes 25.5614 0 0
rfemur -43.7817 -4.34056 -1.3625
rtibia 92.8819 0 0
rfoot 27.006 19.0079 0
rtoes 7.16323 0 0
lowerback 3.96613 0.599026 0.342658
upperback 0.0454869 0.852567 2.21802
thorax -2.18001 0.43253 2.08253
lowerneck -10.7332 -4.88215 2.01226
upperneck -0.147227 -6.74485 0.672952
head 1.72487 -3.33501 -0.441834
lclavicle 2.61348e-14 6.38809e-15 0
lhumerus -45.6466 -11.2895 93.6029
lradius 48.1659 0 0
lwrist 14.4085 0 0
lhand 8.02953 7.37969 0
lfingers 7.12502 0 0
lthumb 33.2575 34.348 0
rclavicle 2.61348e-14 6.38809e-15 0
rhumerus -43.2101 1.88831 -68.844
rradius 50.6363 0 0
rwrist 8.97138 0 0
rhand -23.2008 -17.6038 0
rfingers 7.12502 0 0
rthumb 3.25148 -47.5904 0
109
root 7.56477 16.76 -26.6107 -0.565376 14.2436 -3.50749
lfemur -21.4049 -2.26945 -12.7616
ltibia 36.8222 0 0
lfoot -16.0875 -9.45265 0
ltoes 28.4489 0 0
rfemur -47.0041 -2.79812 -3.60433
rtibia 96.9456 0 0
rfoot 31.2889 18.9079 0
rtoes 13.7468 0 0
lowerback 4.95301 0.201297 0.0840494
upperback 0.474081 0.321915 2.28541
thorax -2.28383 0.169816 2.3138
lowerneck -10.843 -4.81867 1.92092
upperneck -0.0226297 -6.65288 0.614958
head 1.78779 -3.28936 -0.44712
lclavicle 2.72998e-14 3.98464e-15 0
lhumerus -45.2451 -12.2312 93.7035
lradius 48.168 0 0
lwrist 14.0054 0 0
lhand 8.07874 7.24801 0
lfingers 7.12502 0 0
lthumb 33.3032 34.1965 0
rclavicle 2.72998e-14 3.98464e-15 0
rhumerus -43.1726 2.3196 -67.8345
rradius 50.6583 0 0
rwrist 11.6032 0 0
rhand -24.2791 -18.6869 0
rfingers 7.12502 0 0
rthumb 2.21038 -48.701 0
110
root 7.59622 16.785 -26.5973 -1.56218 14.7472 -3.32696
lfemur -19.9889 -1.37127 -13.3597
ltibia 36.0994 0 0
lfoot -15.5423 -10.7089 0
ltoes 30.9864 0 0
rfemur -49.9361 -1.56803 -5.45328
rtibia 99.6705 0 0
rfoot 34.5706 18.5475 0
rtoes 19.2086 0 0
lowerback 5.93635 -0.171463 -0.155029
upperback 0.90158 -0.176941 2.33819
thorax -2.38304 -0.0774315 2.52502
lowerneck -10.9519 -4.73178 1.83324
upperneck 0.0909111 -6.53017 0.567322
head 1.84729 -3.22828 -0.447675
lclavicle 2.72971e-14 2.16468e-15 0
lhumerus -44.8107 -13.0545 93.7698
lradius 48.1531 0 0
lwrist 13.612 0 0
lhand 8.09867 7.13925 0
lfingers 7.12502 0 0
lthumb 33.3213 34.0748 0
rclavicle 2.72971e-14 2.16468e-15 0
rhumerus -43.1247 2.63993 -66.8122
rradius 50.8523 0 0
rwrist 13.7458 0 0
rhand -24.8167 -19.5554 0
rfingers 7.12502 0 0
rthumb 1.69061 -49.5689 0
111
root 7.63166 16.8097 -26.5853 -2.49926 15.0636 -3.14338
lfemur -18.5623 -0.562609 -13.8737
ltibia 35.3211 0 0
lfoot -15.0431 -11.6543 0
ltoes 32.8467 0 0
rfemur -52.359 -0.879757 -6.67453
rtibia 100.434 0 0
rfoot 36.3357 17.9442 0
rtoes 22.6319 0 0
lowerback 6.87432 -0.493697 -0.36023
upperback 1.30667 -0.6101 2.36927
thorax -2.47574 -0.29252 2.70178
lowerneck -11.0547 -4.61808 1.75212
upperneck 0.198094 -6.37275 0.536423
head 1.90391 -3.1495 -0.441476
lclavicle 2.56432e-14 1.39149e-15 0
lhumerus -44.3618 -13.6569 93.7879
lradius 48.1232 0 0
lwrist 13.2766 0 0
lhand 8.12899 7.09096 0
lfingers 7.12502 0 0
lthumb 33.3497 34.0167 0
rclavicle 2.56432e-14 1.39149e-15 0
rhumerus -43.0833 2.77041 -65.7701
rradius 51.311 0 0
rwrist 15.0052 0 0
rhand -24.5093 -20.0358 0
rfingers 7.12502 0 0
rthumb 1.9855 -50.0064 0
